<svg xmlns="http://www.w3.org/2000/svg" width="1680" height="702" viewBox="0 0 1680 702" font-family="'IBM Plex Sans', Arial, Helvetica, sans-serif" role="img" aria-label="One operation plane, many control planes">
<title>One operation plane, many control planes</title>
<rect width="1680" height="702" fill="#F6F5F1"/>
<rect x="341.5" y="41.5" width="997" height="107" rx="16.5" fill="#E6F1EA" stroke="#2F8A57" stroke-width="3"/>
<rect x="376" y="77" width="76" height="36" rx="18" fill="#4B3592"/>
<text x="414" y="103.64" font-size="24" font-weight="700" fill="#FBFAF7" text-anchor="middle">K8s</text>
<text x="466" y="107.24" font-size="34" font-weight="700" fill="#1E6B40">CobaltCore Operation and Monitoring</text>
<text x="860" y="204.24" font-size="24" font-weight="600" fill="#1E6B40">creates and manages</text>
<rect x="41.5" y="311.5" width="437" height="213" rx="16.5" fill="#E7EDF9" stroke="#2457C5" stroke-width="3"/>
<rect x="68" y="338" width="76" height="36" rx="18" fill="#4B3592"/>
<text x="106" y="364.64" font-size="24" font-weight="700" fill="#FBFAF7" text-anchor="middle">K8s</text>
<text x="158" y="364.64" font-size="24" font-weight="700" fill="#1D47A6" letter-spacing="2">OPENSTACK</text>
<text x="68" y="420.96" font-size="36" font-weight="700" fill="#1D47A6">Control Plane A</text>
<rect x="68" y="456" width="220" height="40" rx="20" fill="#1D47A6"/>
<text x="178" y="484.64" font-size="24" font-weight="700" fill="#FBFAF7" text-anchor="middle">OpenStack API</text>
<rect x="41" y="583" width="438" height="78" rx="13" fill="#FDFCF9" stroke="#C5CCD6" stroke-width="2"/>
<rect x="57" y="603" width="126" height="38" rx="19" fill="#E3F1F2" stroke="#0E7D89" stroke-width="2"/>
<text x="120" y="630.64" font-size="24" font-weight="700" fill="#0B5F69" text-anchor="middle">Storage</text>
<rect x="197" y="603" width="126" height="38" rx="19" fill="#F8E8E9" stroke="#C6343C" stroke-width="2"/>
<text x="260" y="630.64" font-size="24" font-weight="700" fill="#A3262E" text-anchor="middle">Compute</text>
<rect x="337" y="603" width="126" height="38" rx="19" fill="#FAF3DA" stroke="#B38A00" stroke-width="2"/>
<text x="400" y="630.64" font-size="24" font-weight="700" fill="#6F5600" text-anchor="middle">Network</text>
<rect x="521.5" y="311.5" width="437" height="213" rx="16.5" fill="#E7EDF9" stroke="#2457C5" stroke-width="3"/>
<rect x="548" y="338" width="76" height="36" rx="18" fill="#4B3592"/>
<text x="586" y="364.64" font-size="24" font-weight="700" fill="#FBFAF7" text-anchor="middle">K8s</text>
<text x="638" y="364.64" font-size="24" font-weight="700" fill="#1D47A6" letter-spacing="2">OPENSTACK</text>
<text x="548" y="420.96" font-size="36" font-weight="700" fill="#1D47A6">Control Plane B</text>
<rect x="548" y="456" width="220" height="40" rx="20" fill="#1D47A6"/>
<text x="658" y="484.64" font-size="24" font-weight="700" fill="#FBFAF7" text-anchor="middle">OpenStack API</text>
<rect x="521" y="583" width="438" height="78" rx="13" fill="#FDFCF9" stroke="#C5CCD6" stroke-width="2"/>
<rect x="537" y="603" width="126" height="38" rx="19" fill="#E3F1F2" stroke="#0E7D89" stroke-width="2"/>
<text x="600" y="630.64" font-size="24" font-weight="700" fill="#0B5F69" text-anchor="middle">Storage</text>
<rect x="677" y="603" width="126" height="38" rx="19" fill="#F8E8E9" stroke="#C6343C" stroke-width="2"/>
<text x="740" y="630.64" font-size="24" font-weight="700" fill="#A3262E" text-anchor="middle">Compute</text>
<rect x="817" y="603" width="126" height="38" rx="19" fill="#FAF3DA" stroke="#B38A00" stroke-width="2"/>
<text x="880" y="630.64" font-size="24" font-weight="700" fill="#6F5600" text-anchor="middle">Network</text>
<rect x="1001.5" y="311.5" width="437" height="213" rx="16.5" fill="#E7EDF9" stroke="#2457C5" stroke-width="3"/>
<rect x="1028" y="338" width="76" height="36" rx="18" fill="#4B3592"/>
<text x="1066" y="364.64" font-size="24" font-weight="700" fill="#FBFAF7" text-anchor="middle">K8s</text>
<text x="1118" y="364.64" font-size="24" font-weight="700" fill="#1D47A6" letter-spacing="2">OPENSTACK</text>
<text x="1028" y="420.96" font-size="36" font-weight="700" fill="#1D47A6">Control Plane C</text>
<rect x="1028" y="456" width="220" height="40" rx="20" fill="#1D47A6"/>
<text x="1138" y="484.64" font-size="24" font-weight="700" fill="#FBFAF7" text-anchor="middle">OpenStack API</text>
<rect x="1001" y="583" width="438" height="78" rx="13" fill="#FDFCF9" stroke="#C5CCD6" stroke-width="2"/>
<rect x="1017" y="603" width="126" height="38" rx="19" fill="#E3F1F2" stroke="#0E7D89" stroke-width="2"/>
<text x="1080" y="630.64" font-size="24" font-weight="700" fill="#0B5F69" text-anchor="middle">Storage</text>
<rect x="1157" y="603" width="126" height="38" rx="19" fill="#F8E8E9" stroke="#C6343C" stroke-width="2"/>
<text x="1220" y="630.64" font-size="24" font-weight="700" fill="#A3262E" text-anchor="middle">Compute</text>
<rect x="1297" y="603" width="126" height="38" rx="19" fill="#FAF3DA" stroke="#B38A00" stroke-width="2"/>
<text x="1360" y="630.64" font-size="24" font-weight="700" fill="#6F5600" text-anchor="middle">Network</text>
<rect x="1481.5" y="311.5" width="157" height="213" rx="16.5" fill="none" stroke="#2457C5" stroke-width="3" stroke-dasharray="9 6"/>
<text x="1560" y="428.8" font-size="30" font-weight="700" fill="#1D47A6" text-anchor="middle">+ more</text>
<polyline points="840,150 840,240" fill="none" stroke="#2F8A57" stroke-width="3"/>
<polyline points="260,240 1560,240" fill="none" stroke="#2F8A57" stroke-width="3"/>
<polyline points="260,240 260,297.5" fill="none" stroke="#2F8A57" stroke-width="3"/>
<polygon points="260,308 252.8,293 267.2,293" fill="#2F8A57"/>
<polyline points="740,240 740,297.5" fill="none" stroke="#2F8A57" stroke-width="3"/>
<polygon points="740,308 732.8,293 747.2,293" fill="#2F8A57"/>
<polyline points="1220,240 1220,297.5" fill="none" stroke="#2F8A57" stroke-width="3"/>
<polygon points="1220,308 1212.8,293 1227.2,293" fill="#2F8A57"/>
<polyline points="1560,240 1560,297.5" fill="none" stroke="#2F8A57" stroke-width="3" stroke-dasharray="9 6"/>
<polygon points="1560,308 1552.8,293 1567.2,293" fill="#2F8A57"/>
<polyline points="260,526 260,569.5" fill="none" stroke="#2457C5" stroke-width="3"/>
<polygon points="260,580 252.8,565 267.2,565" fill="#2457C5"/>
<polyline points="740,526 740,569.5" fill="none" stroke="#2457C5" stroke-width="3"/>
<polygon points="740,580 732.8,565 747.2,565" fill="#2457C5"/>
<polyline points="1220,526 1220,569.5" fill="none" stroke="#2457C5" stroke-width="3"/>
<polygon points="1220,580 1212.8,565 1227.2,565" fill="#2457C5"/>
</svg>
