<svg xmlns="http://www.w3.org/2000/svg" width="1808" height="1144" viewBox="0 0 1808 1144" font-family="'IBM Plex Sans', Arial, Helvetica, sans-serif" role="img" aria-label="Secret flow between OpenBao, ESO, the operators and the services">
<title>Secret flow between OpenBao, ESO, the operators and the services</title>
<rect width="1808" height="1144" fill="#F6F5F1"/>
<rect x="40" y="40" width="1728" height="1016" rx="18.5" fill="#FDFCF9" stroke="#3A4452" stroke-width="3"/>
<rect x="66.5" y="60.5" width="76" height="36" rx="18" fill="#3A4452"/>
<text x="104.5" y="87.14" font-size="24" font-weight="700" fill="#FBFAF7" text-anchor="middle">K8s</text>
<text x="156.5" y="89.3" font-size="30" font-weight="700" fill="#17202B">Management cluster</text>
<rect x="64" y="120" width="310" height="910" rx="12" fill="#F6F5F1" stroke="#7D8794" stroke-width="2"/>
<rect x="82" y="137" width="52" height="30" rx="15" fill="#7D8794"/>
<text x="108" y="159.2" font-size="20" font-weight="700" fill="#FBFAF7" text-anchor="middle">ns</text>
<text x="148" y="160.64" font-size="24" font-weight="700" fill="#2B3440">shared-services</text>
<rect x="82" y="176" width="274" height="838" rx="13" fill="#EEF0F3" stroke="#7D8794" stroke-width="2"/>
<text x="101" y="215.36" font-size="26" font-weight="700" fill="#2B3440">OpenBao</text>
<rect x="1060" y="120" width="680" height="200" rx="12" fill="#F6F5F1" stroke="#7D8794" stroke-width="2"/>
<rect x="1078" y="137" width="52" height="30" rx="15" fill="#7D8794"/>
<text x="1104" y="159.2" font-size="20" font-weight="700" fill="#FBFAF7" text-anchor="middle">ns</text>
<text x="1144" y="160.64" font-size="24" font-weight="700" fill="#2B3440">openstack</text>
<text x="1278.71" y="159.2" font-size="20" font-weight="400" fill="#55606E">standalone service CRs</text>
<rect x="1180" y="344" width="560" height="106" rx="12" fill="#F6F5F1" stroke="#7D8794" stroke-width="2"/>
<rect x="1198" y="361" width="52" height="30" rx="15" fill="#7D8794"/>
<text x="1224" y="383.2" font-size="20" font-weight="700" fill="#FBFAF7" text-anchor="middle">ns</text>
<text x="1264" y="384.64" font-size="24" font-weight="700" fill="#2B3440">external-secrets</text>
<rect x="400" y="490" width="1340" height="540" rx="12" fill="#F6F5F1" stroke="#7D8794" stroke-width="2"/>
<rect x="418" y="507" width="52" height="30" rx="15" fill="#7D8794"/>
<text x="444" y="529.2" font-size="20" font-weight="700" fill="#FBFAF7" text-anchor="middle">ns</text>
<text x="484" y="530.64" font-size="24" font-weight="700" fill="#2B3440">{ns}</text>
<text x="546.69" y="529.2" font-size="20" font-weight="400" fill="#55606E">a ControlPlane namespace</text>
<rect x="100" y="236" width="238" height="494" rx="17" fill="#FDFCF9" stroke="#7D8794" stroke-width="2"/>
<text x="219" y="491.64" font-size="24" font-weight="600" fill="#2B3440" text-anchor="middle">KV engine kv-v2</text>
<rect x="100" y="846" width="238" height="154" rx="17" fill="#FDFCF9" stroke="#7D8794" stroke-width="2"/>
<text x="219" y="916.64" font-size="24" font-weight="600" fill="#2B3440" text-anchor="middle">Database engine</text>
<text x="219" y="946.64" font-size="24" font-weight="600" fill="#2B3440" text-anchor="middle">database/mariadb</text>
<rect x="1500" y="361" width="220" height="72" rx="17" fill="#FDFCF9" stroke="#7D8794" stroke-width="2"/>
<text x="1610" y="390.64" font-size="24" font-weight="600" fill="#2B3440" text-anchor="middle">External Secrets</text>
<text x="1610" y="420.64" font-size="24" font-weight="600" fill="#2B3440" text-anchor="middle">Operator</text>
<text x="1198" y="427.2" font-size="20" font-weight="400" fill="#55606E">moves every magenta arrow</text>
<rect x="430" y="232" width="300" height="76" rx="20" fill="#2B3440"/>
<text x="580" y="263.64" font-size="24" font-weight="700" fill="#FBFAF7" text-anchor="middle">ClusterSecretStore</text>
<text x="580" y="293.64" font-size="24" font-weight="700" fill="#FBFAF7" text-anchor="middle">openbao-cluster-store</text>
<text x="430" y="337.2" font-size="20" font-weight="400" fill="#55606E">role eso-management</text>
<text x="430" y="363.2" font-size="20" font-weight="400" fill="#55606E">ServiceAccount external-secrets</text>
<text x="430" y="389.2" font-size="20" font-weight="400" fill="#55606E">client certificate eso-openbao-client-tls</text>
<rect x="720" y="410" width="200" height="48" rx="17" fill="#FDFCF9" stroke="#2F8A57" stroke-width="2"/>
<text x="820" y="442.64" font-size="24" font-weight="600" fill="#1E6B40" text-anchor="middle">c5c3-operator</text>
<path d="M1110 246 H1324 L1340 262 V294 H1110 Z" fill="#F7E8F0" stroke="#B0387F" stroke-width="2"/>
<polyline points="1324,246 1324,262 1340,262" fill="none" stroke="#B0387F" stroke-width="2"/>
<text x="1225" y="278.64" font-size="24" font-weight="600" fill="#8A2B63" text-anchor="middle">keystone-admin</text>
<rect x="1222" y="208" width="118" height="30" rx="15" fill="#FDFCF9" stroke="#7D8794" stroke-width="2"/>
<text x="1281" y="229.48" font-size="18" font-weight="700" fill="#55606E" text-anchor="middle">kind only</text>
<rect x="1440" y="246" width="270" height="48" rx="17" fill="#FDFCF9" stroke="#2457C5" stroke-width="2"/>
<text x="1575" y="278.64" font-size="24" font-weight="600" fill="#1D47A6" text-anchor="middle">standalone Keystone</text>
<rect x="560" y="566" width="300" height="156" rx="20" fill="#2B3440"/>
<text x="710" y="637.64" font-size="24" font-weight="700" fill="#FBFAF7" text-anchor="middle">SecretStore</text>
<text x="710" y="667.64" font-size="24" font-weight="700" fill="#FBFAF7" text-anchor="middle">openbao-tenant-store</text>
<text x="560" y="751.2" font-size="20" font-weight="400" fill="#55606E">role eso-tenant</text>
<text x="560" y="777.2" font-size="20" font-weight="400" fill="#55606E">ServiceAccount eso-tenant-auth</text>
<text x="560" y="803.2" font-size="20" font-weight="400" fill="#55606E">client certificate eso-tenant-client-tls</text>
<path d="M1030 570 H1424 L1440 586 V618 H1030 Z" fill="#F7E8F0" stroke="#B0387F" stroke-width="2"/>
<polyline points="1424,570 1424,586 1440,586" fill="none" stroke="#B0387F" stroke-width="2"/>
<text x="1235" y="602.64" font-size="24" font-weight="600" fill="#8A2B63" text-anchor="middle">{cp}-admin-app-credential</text>
<path d="M1030 670 H1424 L1440 686 V718 H1030 Z" fill="#F7E8F0" stroke="#B0387F" stroke-width="2"/>
<polyline points="1424,670 1424,686 1440,686" fill="none" stroke="#B0387F" stroke-width="2"/>
<text x="1235" y="702.64" font-size="24" font-weight="600" fill="#8A2B63" text-anchor="middle">{cp}-keystone-admin-credentials</text>
<path d="M1030 856 H1424 L1440 872 V904 H1030 Z" fill="#F7E8F0" stroke="#B0387F" stroke-width="2"/>
<polyline points="1424,856 1424,872 1440,872" fill="none" stroke="#B0387F" stroke-width="2"/>
<text x="1235" y="888.64" font-size="24" font-weight="600" fill="#8A2B63" text-anchor="middle">{cp}-{svc}-db-credentials</text>
<rect x="1510" y="660" width="204" height="254" rx="17" fill="#FDFCF9" stroke="#2457C5" stroke-width="2"/>
<text x="1612" y="780.64" font-size="24" font-weight="600" fill="#1D47A6" text-anchor="middle">service pods</text>
<text x="1612" y="810.64" font-size="24" font-weight="600" fill="#1D47A6" text-anchor="middle">and Jobs</text>
<rect x="1510" y="956" width="204" height="48" rx="17" fill="#FDFCF9" stroke="#7D8794" stroke-width="2"/>
<text x="1612" y="988.64" font-size="24" font-weight="600" fill="#2B3440" text-anchor="middle">MariaDB</text>
<polyline points="338,270 419.5,270" fill="none" stroke="#B0387F" stroke-width="3"/>
<polygon points="430,270 415,277.2 415,262.8" fill="#B0387F"/>
<polyline points="730,270 1099.5,270" fill="none" stroke="#B0387F" stroke-width="3"/>
<polygon points="1110,270 1095,277.2 1095,262.8" fill="#B0387F"/>
<polyline points="1340,270 1429.5,270" fill="none" stroke="#B0387F" stroke-width="3"/>
<polygon points="1440,270 1425,277.2 1425,262.8" fill="#B0387F"/>
<text x="920" y="257.2" font-size="20" font-weight="400" fill="#8A2B63" text-anchor="middle">ExternalSecret</text>
<polyline points="820,458 820,555.5" fill="none" stroke="#2F8A57" stroke-width="3"/>
<polygon points="820,566 812.8,551 827.2,551" fill="#2F8A57"/>
<polyline points="920,434 1100,434 1100,559.5" fill="none" stroke="#2F8A57" stroke-width="3"/>
<polygon points="1100,570 1092.8,555 1107.2,555" fill="#2F8A57"/>
<polyline points="1030,594 870.5,594" fill="none" stroke="#B0387F" stroke-width="3"/>
<polygon points="860,594 875,586.8 875,601.2" fill="#B0387F"/>
<polyline points="560,594 348.5,594" fill="none" stroke="#B0387F" stroke-width="3"/>
<polygon points="338,594 353,586.8 353,601.2" fill="#B0387F"/>
<text x="945" y="581.2" font-size="20" font-weight="400" fill="#8A2B63" text-anchor="middle">PushSecret</text>
<polyline points="338,694 549.5,694" fill="none" stroke="#B0387F" stroke-width="3"/>
<polygon points="560,694 545,701.2 545,686.8" fill="#B0387F"/>
<polyline points="860,694 1019.5,694" fill="none" stroke="#B0387F" stroke-width="3"/>
<polygon points="1030,694 1015,701.2 1015,686.8" fill="#B0387F"/>
<polyline points="1440,694 1499.5,694" fill="none" stroke="#B0387F" stroke-width="3"/>
<polygon points="1510,694 1495,701.2 1495,686.8" fill="#B0387F"/>
<text x="945" y="681.2" font-size="20" font-weight="400" fill="#8A2B63" text-anchor="middle">ExternalSecret</text>
<polyline points="338,880 1019.5,880" fill="none" stroke="#B0387F" stroke-width="3"/>
<polygon points="1030,880 1015,887.2 1015,872.8" fill="#B0387F"/>
<polyline points="1440,880 1499.5,880" fill="none" stroke="#B0387F" stroke-width="3"/>
<polygon points="1510,880 1495,887.2 1495,872.8" fill="#B0387F"/>
<text x="720" y="867.2" font-size="20" font-weight="400" fill="#8A2B63" text-anchor="middle">VaultDynamicSecret</text>
<text x="720" y="909.2" font-size="20" font-weight="400" fill="#55606E" text-anchor="middle">own login: role {svc}-db, ServiceAccount {svc}-db-creds</text>
<polyline points="338,980 1499.5,980" fill="none" stroke="#3A4452" stroke-width="3" stroke-dasharray="3 9"/>
<polygon points="1510,980 1495,987.2 1495,972.8" fill="#3A4452"/>
<text x="1235" y="967.2" font-size="20" font-weight="400" fill="#2B3440" text-anchor="middle">one user per lease</text>
<text x="40" y="1097.2" font-size="20" font-weight="400" fill="#55606E">{cp}: the ControlPlane name. {ns}: its namespace. {svc}: a service, such as keystone or glance.</text>
</svg>
